<?xml version="1.0" encoding="UTF-8" standalone="no"?>
<!DOCTYPE svg PUBLIC "-//W3C//DTD SVG 1.1//EN" "http://www.w3.org/Graphics/SVG/1.1/DTD/svg11.dtd">
<svg xmlns="http://www.w3.org/2000/svg" version="1.1" viewBox="0.00 0.00 900.00 600.00">
<g stroke-width="2.00" fill="none" stroke-linecap="butt">
<path stroke="#771329" vector-effect="non-scaling-stroke" d="
  M 606.21 397.12
  L 605.54 397.12"
/>
<path stroke="#771329" vector-effect="non-scaling-stroke" d="
  M 605.21 397.12
  L 604.29 397.13"
/>
</g>
<path fill="#1b181c" d="
  M 220.17 181.00
  A 0.41 0.40 0.0 0 1 220.58 181.40
  L 220.58 336.85
  A 0.54 0.53 -90.0 0 0 221.11 337.39
  L 278.82 337.39
  A 0.77 0.77 0.0 0 1 279.56 337.95
  Q 284.40 355.11 299.37 364.65
  A 0.49 0.48 -28.5 0 1 299.10 365.54
  L 193.12 365.54
  A 0.79 0.78 89.6 0 1 192.34 364.76
  Q 192.22 346.14 192.64 322.67
  C 192.70 319.57 192.37 316.83 192.35 313.97
  Q 192.23 294.46 192.82 273.50
  C 192.87 271.98 192.64 270.36 192.51 268.50
  Q 192.31 265.65 192.28 240.75
  Q 192.24 218.52 192.44 181.55
  A 0.56 0.56 0.0 0 1 193.00 181.00
  L 220.17 181.00
  Z"
/>
<path fill="#1b181c" d="
  M 576.33 181.05
  C 587.11 181.04 597.82 183.26 607.06 188.61
  C 623.74 198.27 636.03 214.52 638.02 233.73
  C 639.31 246.20 639.33 257.66 639.35 273.31
  C 639.36 288.97 639.36 300.42 638.09 312.89
  C 636.13 332.11 623.87 348.38 607.22 358.07
  C 597.98 363.44 587.28 365.68 576.50 365.69
  C 565.72 365.70 555.01 363.48 545.76 358.13
  C 529.09 348.47 516.80 332.22 514.81 313.01
  C 513.52 300.54 513.50 289.08 513.48 273.43
  C 513.47 257.77 513.47 246.32 514.74 233.85
  C 516.69 214.63 528.95 198.36 545.61 188.67
  C 554.85 183.30 565.55 181.06 576.33 181.05
  Z
  M 540.08 273.45
  Q 540.09 285.52 541.14 303.25
  Q 542.33 323.20 558.24 333.39
  Q 566.13 338.44 576.40 338.43
  Q 586.66 338.43 594.55 333.37
  Q 610.44 323.16 611.61 303.21
  Q 612.65 285.48 612.64 273.41
  Q 612.63 261.33 611.58 243.60
  Q 610.39 223.65 594.48 213.47
  Q 586.59 208.41 576.32 208.42
  Q 566.06 208.43 558.17 213.49
  Q 542.28 223.69 541.11 243.64
  Q 540.07 261.37 540.08 273.45
  Z"
/>
<path fill="#1b181c" d="
  M 749.59 222.13
  Q 743.27 218.34 742.38 217.87
  Q 726.85 209.55 708.25 208.45
  C 694.71 207.64 680.39 213.99 677.63 228.05
  Q 675.88 236.92 678.67 242.62
  C 683.62 252.78 693.53 256.54 704.20 258.08
  Q 714.77 259.60 725.11 261.16
  Q 731.42 262.12 738.64 264.88
  C 768.01 276.12 776.88 310.48 764.85 337.67
  C 753.31 363.74 719.64 367.96 695.01 365.14
  Q 664.36 361.62 641.22 341.47
  A 0.64 0.64 0.0 0 1 641.15 340.58
  L 658.06 320.57
  A 0.36 0.35 38.7 0 1 658.56 320.52
  Q 682.14 339.97 713.26 338.21
  Q 723.42 337.64 731.69 333.46
  C 742.00 328.25 745.09 316.02 742.33 305.33
  C 739.85 295.70 730.50 290.25 721.13 288.87
  Q 698.00 285.46 695.24 285.01
  Q 689.74 284.13 683.43 281.83
  C 660.08 273.33 648.24 253.08 650.36 228.80
  Q 653.04 198.06 680.94 185.74
  Q 687.57 182.81 696.97 181.79
  Q 733.42 177.86 764.15 199.12
  A 1.04 1.04 0.0 0 1 764.43 200.55
  L 750.31 221.97
  A 0.54 0.53 32.1 0 1 749.59 222.13
  Z"
/>
<path fill="#1f84c6" d="
  M 803.29 198.60
  Q 812.11 198.60 813.56 198.74
  A 0.58 0.57 -87.7 0 1 814.07 199.30
  Q 814.18 208.85 814.04 233.04
  Q 814.04 234.10 814.26 234.32
  Q 814.48 234.54 815.54 234.54
  Q 839.73 234.42 849.28 234.54
  A 0.58 0.57 -2.2 0 1 849.84 235.06
  Q 849.97 236.51 849.97 245.33
  Q 849.96 254.15 849.83 255.60
  A 0.58 0.57 2.3 0 1 849.27 256.11
  Q 839.72 256.22 815.53 256.08
  Q 814.47 256.07 814.24 256.30
  Q 814.02 256.52 814.03 257.58
  Q 814.14 281.77 814.02 291.32
  A 0.58 0.57 87.8 0 1 813.51 291.88
  Q 812.06 292.01 803.24 292.01
  Q 794.42 292.00 792.97 291.87
  A 0.58 0.57 -87.7 0 1 792.45 291.30
  Q 792.34 281.75 792.48 257.56
  Q 792.49 256.50 792.27 256.28
  Q 792.05 256.06 790.99 256.07
  Q 766.80 256.18 757.25 256.06
  A 0.58 0.57 -2.2 0 1 756.69 255.55
  Q 756.55 254.10 756.56 245.28
  Q 756.56 236.46 756.70 235.01
  A 0.58 0.57 2.3 0 1 757.26 234.49
  Q 766.81 234.38 791.00 234.52
  Q 792.06 234.53 792.28 234.31
  Q 792.50 234.09 792.50 233.03
  Q 792.38 208.84 792.50 199.29
  A 0.58 0.57 87.8 0 1 793.02 198.73
  Q 794.47 198.59 803.29 198.60
  Z"
/>
<rect fill="#1f84c6" x="-21.27" y="-21.27" transform="translate(166.21,249.30) rotate(0.1)" width="42.54" height="42.54" rx="1.11"/>
<path fill="#1b181c" d="
  M 361.30 353.35
  A 0.35 0.35 0.0 0 0 360.64 353.18
  C 356.40 360.81 348.80 363.95 340.50 365.17
  Q 328.65 366.90 317.25 364.54
  Q 301.62 361.31 292.32 348.65
  C 283.43 336.54 283.15 318.07 291.14 305.35
  C 298.76 293.21 311.50 288.26 325.55 288.12
  Q 345.27 287.92 360.68 288.08
  A 0.53 0.53 0.0 0 0 361.21 287.57
  Q 361.27 285.73 361.34 276.90
  Q 361.40 269.63 359.53 266.57
  C 355.43 259.86 347.33 258.13 339.76 257.91
  C 329.04 257.60 318.11 257.51 312.08 267.34
  A 0.67 0.67 0.0 0 1 311.09 267.52
  L 292.21 252.53
  A 0.59 0.58 38.5 0 1 292.11 251.70
  Q 299.65 242.16 309.55 237.83
  C 319.91 233.30 330.33 232.87 342.03 233.51
  C 351.48 234.03 360.73 236.22 369.08 240.68
  C 381.35 247.23 386.33 260.63 386.39 274.26
  Q 386.51 305.50 386.41 363.86
  A 0.48 0.48 0.0 0 1 385.93 364.34
  L 362.15 364.34
  A 0.85 0.84 -0.0 0 1 361.30 363.50
  L 361.30 353.35
  Z
  M 360.71 309.54
  Q 332.53 309.55 331.33 309.55
  C 320.89 309.54 308.90 312.30 309.15 325.23
  Q 309.24 329.86 311.72 333.03
  C 315.93 338.40 320.86 340.35 327.93 341.13
  Q 340.18 342.46 351.68 339.17
  C 362.89 335.96 361.53 318.99 361.19 310.00
  A 0.48 0.47 -0.6 0 0 360.71 309.54
  Z"
/>
<path fill="#1b181c" d="
  M 419.95 411.62
  Q 409.68 405.92 402.19 396.95
  A 0.58 0.58 0.0 0 1 402.27 396.13
  L 420.92 380.84
  A 0.70 0.69 -43.0 0 1 421.83 380.87
  C 427.83 386.37 436.03 391.47 444.24 392.18
  Q 451.10 392.77 458.20 390.15
  C 469.33 386.04 474.57 375.33 474.54 364.00
  Q 474.54 361.72 474.55 351.86
  A 0.36 0.36 0.0 0 0 473.92 351.62
  Q 464.45 362.41 450.06 365.06
  Q 431.61 368.45 416.41 356.98
  Q 410.70 352.68 407.86 348.58
  C 402.83 341.33 400.86 332.57 400.23 323.21
  Q 398.38 296.08 400.60 270.83
  C 402.11 253.61 413.72 239.10 430.37 234.83
  C 446.88 230.61 462.53 235.22 473.90 247.98
  A 0.37 0.37 0.0 0 0 474.55 247.74
  L 474.55 235.60
  A 0.68 0.68 0.0 0 1 475.23 234.92
  L 499.03 234.92
  A 0.64 0.64 0.0 0 1 499.67 235.56
  Q 499.69 314.97 499.64 363.50
  C 499.63 379.71 494.08 396.14 480.69 406.42
  Q 463.83 419.35 442.03 417.91
  Q 429.83 417.10 419.95 411.62
  Z
  M 424.67 299.58
  Q 424.67 309.57 425.32 318.25
  C 426.28 330.97 437.64 340.00 449.67 340.00
  C 461.69 340.00 473.06 330.97 474.01 318.25
  Q 474.66 309.56 474.66 299.58
  Q 474.66 289.59 474.01 280.91
  C 473.05 268.19 461.69 259.15 449.66 259.15
  C 437.64 259.15 426.28 268.19 425.32 280.91
  Q 424.67 289.59 424.67 299.58
  Z"
/>
<rect fill="#1f84c6" x="-21.19" y="-21.19" transform="translate(166.30,296.62) rotate(-0.1)" width="42.38" height="42.38" rx="1.00"/>
<rect fill="#1f84c6" x="-21.27" y="-21.27" transform="translate(118.97,296.60) rotate(0.1)" width="42.54" height="42.54" rx="0.86"/>
<rect fill="#1f84c6" x="50.07" y="322.67" width="42.66" height="42.66" rx="0.50"/>
<rect fill="#1f84c6" x="-21.31" y="-21.31" transform="translate(118.90,344.00) rotate(0.1)" width="42.62" height="42.62" rx="0.70"/>
<rect fill="#1f84c6" x="-21.28" y="-21.28" transform="translate(166.25,344.02) rotate(-0.1)" width="42.56" height="42.56" rx="1.14"/>
<path fill="#d30e35" d="
  M 533.98 404.92
  L 533.98 405.74
  A 0.71 0.71 0.0 0 1 533.27 406.45
  L 528.53 406.45
  A 0.68 0.68 0.0 0 1 527.85 405.77
  L 527.85 380.35
  A 0.72 0.72 0.0 0 1 528.57 379.63
  L 533.58 379.63
  A 0.70 0.69 90.0 0 1 534.27 380.33
  L 534.27 388.01
  A 0.49 0.49 0.0 0 0 535.08 388.38
  C 538.99 384.91 545.95 385.78 549.41 388.81
  C 553.21 392.12 553.98 398.69 550.86 402.91
  C 547.75 407.12 538.72 408.72 535.02 404.53
  A 0.60 0.59 24.3 0 0 533.98 404.92
  Z
  M 546.1700 396.5194
  A 6.09 5.63 -0.1 0 0 540.0702 390.9000
  A 6.09 5.63 -0.1 0 0 533.9900 396.5406
  A 6.09 5.63 -0.1 0 0 540.0898 402.1600
  A 6.09 5.63 -0.1 0 0 546.1700 396.5194
  Z"
/>
<rect fill="#d30e35" x="-3.20" y="-2.21" transform="translate(630.27,382.06) rotate(-0.4)" width="6.40" height="4.42" rx="0.79"/>
<rect fill="#d30e35" x="-3.19" y="-2.24" transform="translate(640.66,382.04) rotate(-0.2)" width="6.38" height="4.48" rx="0.80"/>
<rect fill="#d30e35" x="-3.22" y="-13.31" transform="translate(738.97,392.99) rotate(-0.1)" width="6.44" height="26.62" rx="0.55"/>
<path fill="#d30e35" d="
  M 606.21 397.12
  L 605.54 397.12
  Q 605.38 397.12 605.21 397.12
  L 604.29 397.13
  L 601.22 396.99
  A 0.61 0.60 1.4 0 0 600.58 397.59
  L 600.58 405.49
  A 0.80 0.79 90.0 0 1 599.79 406.29
  L 594.22 406.29
  A 0.79 0.79 0.0 0 1 593.43 405.50
  L 593.43 380.75
  A 0.70 0.69 3.0 0 1 594.20 380.07
  Q 596.28 380.29 608.20 380.09
  C 615.68 379.96 621.17 381.64 620.04 390.16
  C 619.03 397.79 612.01 397.19 606.21 397.12
  Z
  M 600.62 385.56
  L 600.64 391.68
  A 0.63 0.63 0.0 0 0 601.27 392.31
  L 609.37 392.28
  A 3.39 3.14 -0.2 0 0 612.75 389.13
  L 612.75 388.03
  A 3.39 3.14 -0.2 0 0 609.35 384.90
  L 601.25 384.93
  A 0.63 0.63 0.0 0 0 600.62 385.56
  Z"
/>
<path fill="#d30e35" d="
  M 731.87 400.37
  A 0.46 0.45 15.6 0 1 732.26 401.06
  Q 729.03 406.51 722.25 406.84
  C 714.37 407.23 706.74 405.17 707.38 395.41
  C 707.68 390.80 710.24 387.79 714.85 386.58
  C 723.39 384.34 733.39 386.97 732.63 397.82
  A 0.36 0.35 1.7 0 1 732.27 398.15
  L 714.93 398.15
  A 0.83 0.82 74.4 0 0 714.23 399.40
  C 716.69 403.43 722.22 403.99 725.24 400.78
  A 1.31 1.28 20.9 0 1 726.19 400.37
  L 731.87 400.37
  Z
  M 714.45 394.32
  L 725.75 394.34
  A 0.15 0.15 0.0 0 0 725.90 394.19
  L 725.90 394.11
  A 5.63 4.05 0.1 0 0 720.27 390.05
  L 719.93 390.05
  A 5.63 4.05 0.1 0 0 714.30 394.09
  L 714.30 394.17
  A 0.15 0.15 0.0 0 0 714.45 394.32
  Z"
/>
<path fill="#d30e35" d="
  M 648.30 397.25
  A 9.52 9.52 0.0 0 1 638.78 406.77
  L 632.20 406.77
  A 9.52 9.52 0.0 0 1 622.68 397.25
  L 622.68 395.63
  A 9.52 9.52 0.0 0 1 632.20 386.11
  L 638.78 386.11
  A 9.52 9.52 0.0 0 1 648.30 395.63
  L 648.30 397.25
  Z
  M 641.7074 395.9971
  A 5.34 5.34 0.0 0 0 636.4519 390.5739
  L 634.7721 390.5475
  A 5.34 5.34 0.0 0 0 629.3489 395.8030
  L 629.3326 396.8429
  A 5.34 5.34 0.0 0 0 634.5881 402.2661
  L 636.2679 402.2925
  A 5.34 5.34 0.0 0 0 641.6911 397.0370
  L 641.7074 395.9971
  Z"
/>
<path fill="#d30e35" d="
  M 657.91 388.13
  A 0.60 0.59 -24.1 0 0 658.95 388.52
  C 662.67 384.33 671.72 385.96 674.83 390.19
  C 677.95 394.43 677.16 401.02 673.34 404.32
  C 669.86 407.35 662.88 408.21 658.97 404.72
  A 0.49 0.49 0.0 0 0 658.15 405.09
  L 658.13 412.79
  A 0.70 0.69 -89.8 0 1 657.44 413.49
  L 652.42 413.47
  A 0.72 0.72 0.0 0 1 651.70 412.75
  L 651.76 387.26
  A 0.68 0.68 0.0 0 1 652.45 386.58
  L 657.20 386.59
  A 0.71 0.71 0.0 0 1 657.91 387.30
  L 657.91 388.13
  Z
  M 657.9508 396.4443
  A 6.09 5.63 -179.1 0 0 663.9516 402.1693
  A 6.09 5.63 -179.1 0 0 670.1292 396.6357
  A 6.09 5.63 -179.1 0 0 664.1284 390.9107
  A 6.09 5.63 -179.1 0 0 657.9508 396.4443
  Z"
/>
<path fill="#d30e35" d="
  M 686.26 388.12
  A 0.60 0.59 -24.0 0 0 687.30 388.52
  C 691.02 384.34 700.05 385.98 703.15 390.21
  C 706.25 394.45 705.45 401.02 701.63 404.32
  C 698.15 407.33 691.18 408.17 687.29 404.68
  A 0.49 0.49 0.0 0 0 686.47 405.05
  L 686.44 412.74
  A 0.70 0.69 -89.7 0 1 685.74 413.43
  L 680.73 413.41
  A 0.72 0.72 0.0 0 1 680.01 412.69
  L 680.13 387.24
  A 0.68 0.68 0.0 0 1 680.81 386.57
  L 685.56 386.59
  A 0.71 0.71 0.0 0 1 686.27 387.30
  L 686.26 388.12
  Z
  M 686.2400 396.5400
  A 6.09 5.63 -180.0 0 0 692.3300 402.1700
  A 6.09 5.63 -180.0 0 0 698.4200 396.5400
  A 6.09 5.63 -180.0 0 0 692.3300 390.9100
  A 6.09 5.63 -180.0 0 0 686.2400 396.5400
  Z"
/>
<path fill="#d30e35" d="
  M 578.07 386.76
  Q 573.01 397.70 567.45 409.46
  C 565.23 414.16 561.59 413.42 557.38 413.49
  A 1.38 1.38 0.0 0 1 555.97 412.11
  L 555.97 409.92
  A 1.28 1.28 0.0 0 1 557.52 408.67
  Q 560.90 409.41 562.21 405.97
  A 1.20 1.19 -47.5 0 0 562.17 404.99
  L 553.30 386.70
  A 0.11 0.11 0.0 0 1 553.40 386.54
  L 559.98 386.54
  A 0.50 0.50 0.0 0 1 560.44 386.84
  L 565.40 398.39
  A 0.48 0.48 0.0 0 0 566.29 398.38
  L 571.08 386.83
  A 0.49 0.48 10.7 0 1 571.53 386.53
  L 577.93 386.53
  A 0.16 0.16 0.0 0 1 578.07 386.76
  Z"
/>
<path fill="#1b181c" d="
  M 605.21 397.12
  L 604.29 397.13
  L 605.21 397.12
  Z"
/>
<path fill="#1b181c" d="
  M 606.21 397.12
  L 605.54 397.12
  L 606.21 397.12
  Z"
/>
</svg>
