<?xml version="1.0" encoding="UTF-8" standalone="no"?>
<!DOCTYPE svg PUBLIC "-//W3C//DTD SVG 1.1//EN" "http://www.w3.org/Graphics/SVG/1.1/DTD/svg11.dtd">
<svg xmlns="http://www.w3.org/2000/svg" version="1.1" viewBox="0.00 0.00 400.00 200.00">
<rect fill="#f6a200" x="132.41" y="24.22" width="40.74" height="26.20" rx="6.01"/>
<rect fill="#3c3c3b" x="-20.26" y="-13.15" transform="translate(106.20,51.45) rotate(-0.1)" width="40.52" height="26.30" rx="6.03"/>
<rect fill="#3c3c3b" x="179.12" y="38.31" width="40.54" height="26.30" rx="6.02"/>
<rect fill="#3c3c3b" x="225.63" y="38.32" width="40.64" height="26.28" rx="6.09"/>
<rect fill="#3c3c3b" x="272.34" y="38.32" width="40.34" height="26.30" rx="5.79"/>
<rect fill="#3c3c3b" x="-20.07" y="-13.05" transform="translate(106.35,83.75) rotate(0.1)" width="40.14" height="26.10" rx="5.48"/>
<rect fill="#3c3c3b" x="132.49" y="70.70" width="40.62" height="26.12" rx="5.97"/>
<rect fill="#3c3c3b" x="-20.24" y="-13.06" transform="translate(199.39,83.76) rotate(0.1)" width="40.48" height="26.12" rx="5.78"/>
<rect fill="#3c3c3b" x="225.70" y="70.69" width="40.54" height="26.10" rx="5.85"/>
<rect fill="#3c3c3b" x="-20.17" y="-13.08" transform="translate(292.51,83.76) rotate(0.2)" width="40.34" height="26.16" rx="5.72"/>
<path fill="#3c3c3b" d="
  M 107.51 103.24
  Q 121.70 103.25 121.73 103.25
  Q 125.43 103.32 126.75 104.32
  Q 129.05 106.06 129.06 108.78
  Q 129.17 137.55 129.07 175.33
  A 1.74 1.74 0.0 0 1 127.33 177.06
  L 121.54 177.06
  A 1.68 1.68 0.0 0 1 119.86 175.38
  L 119.86 113.64
  A 1.57 1.57 0.0 0 0 118.29 112.07
  L 113.75 112.07
  A 1.62 1.61 -0.0 0 0 112.13 113.68
  L 112.08 175.62
  A 1.38 1.38 0.0 0 1 110.96 176.97
  Q 110.53 177.05 107.46 177.05
  Q 104.40 177.05 103.97 176.97
  A 1.38 1.38 0.0 0 1 102.85 175.61
  L 102.88 113.67
  A 1.62 1.61 0.1 0 0 101.26 112.06
  L 96.72 112.06
  A 1.57 1.57 0.0 0 0 95.15 113.62
  L 95.07 175.36
  A 1.68 1.68 0.0 0 1 93.39 177.04
  L 87.60 177.03
  A 1.74 1.74 0.0 0 1 85.86 175.30
  Q 85.81 137.52 85.96 108.75
  Q 85.97 106.03 88.27 104.30
  Q 89.59 103.30 93.29 103.23
  Q 93.33 103.23 107.51 103.24
  Z"
/>
<path fill="#3c3c3b" d="
  M 167.38 171.06
  A 5.94 5.94 0.0 0 1 161.44 177.00
  L 140.84 177.00
  A 5.94 5.94 0.0 0 1 134.90 171.06
  L 134.90 109.18
  A 5.94 5.94 0.0 0 1 140.84 103.24
  L 161.44 103.24
  A 5.94 5.94 0.0 0 1 167.38 109.18
  L 167.38 171.06
  Z
  M 158.15 113.62
  A 1.51 1.51 0.0 0 0 156.64 112.11
  L 145.78 112.11
  A 1.51 1.51 0.0 0 0 144.27 113.62
  L 144.27 167.64
  A 1.51 1.51 0.0 0 0 145.78 169.15
  L 156.64 169.15
  A 1.51 1.51 0.0 0 0 158.15 167.64
  L 158.15 113.62
  Z"
/>
<path fill="#3c3c3b" d="
  M 173.42 104.38
  A 1.25 1.25 0.0 0 1 174.67 103.14
  L 189.78 103.16
  A 13.64 13.50 -89.9 0 1 203.26 116.83
  L 203.18 163.49
  A 13.64 13.50 -89.9 0 1 189.66 177.10
  L 174.55 177.08
  A 1.25 1.25 0.0 0 1 173.30 175.82
  L 173.42 104.38
  Z
  M 182.67 113.42
  L 182.67 167.68
  A 1.46 1.46 0.0 0 0 184.13 169.14
  L 187.71 169.14
  A 6.42 6.22 90.0 0 0 193.93 162.72
  L 193.93 118.38
  A 6.42 6.22 -90.0 0 0 187.71 111.96
  L 184.13 111.96
  A 1.46 1.46 0.0 0 0 182.67 113.42
  Z"
/>
<path fill="#3c3c3b" d="
  M 224.32 169.20
  Q 227.03 169.20 229.32 169.12
  A 1.25 1.25 0.0 0 0 230.53 167.87
  L 230.53 104.52
  A 1.22 1.21 -90.0 0 1 231.74 103.30
  L 238.71 103.30
  A 1.28 1.27 -90.0 0 1 239.98 104.58
  Q 240.00 157.17 240.04 166.89
  C 240.07 172.24 240.48 176.45 234.26 177.01
  Q 233.87 177.04 224.32 177.05
  Q 214.78 177.05 214.39 177.02
  C 208.17 176.47 208.57 172.26 208.60 166.91
  Q 208.63 157.19 208.59 104.60
  A 1.28 1.27 89.9 0 1 209.86 103.32
  L 216.83 103.31
  A 1.22 1.21 89.9 0 1 218.04 104.53
  L 218.11 167.88
  A 1.25 1.25 0.0 0 0 219.32 169.12
  Q 221.61 169.20 224.32 169.20
  Z"
/>
<path fill="#3c3c3b" d="
  M 296.70 103.21
  Q 305.53 103.20 306.96 103.30
  C 311.60 103.61 312.29 106.80 312.27 111.26
  Q 312.16 144.24 312.38 175.39
  A 1.64 1.63 -0.3 0 1 310.74 177.04
  L 304.70 177.04
  A 1.60 1.60 0.0 0 1 303.10 175.44
  L 303.10 151.06
  A 1.37 1.37 0.0 0 0 301.81 149.70
  Q 301.26 149.67 296.74 149.67
  Q 292.21 149.67 291.67 149.71
  A 1.37 1.37 0.0 0 0 290.38 151.07
  L 290.42 175.45
  A 1.60 1.60 0.0 0 1 288.83 177.05
  L 282.79 177.07
  A 1.64 1.63 0.2 0 1 281.14 175.42
  Q 281.31 144.27 281.14 111.29
  C 281.11 106.83 281.79 103.64 286.43 103.32
  Q 287.86 103.22 296.70 103.21
  Z
  M 303.3180 113.6688
  A 1.60 1.60 0.0 0 0 301.7152 112.0716
  L 292.0553 112.0885
  A 1.60 1.60 0.0 0 0 290.4581 113.6912
  L 290.5020 138.8512
  A 1.60 1.60 0.0 0 0 292.1048 140.4484
  L 301.7647 140.4315
  A 1.60 1.60 0.0 0 0 303.3619 138.8288
  L 303.3180 113.6688
  Z"
/>
<path fill="#3c3c3b" d="
  M 245.53 104.39
  A 0.96 0.95 0.3 0 1 246.49 103.45
  L 253.97 103.45
  A 0.84 0.83 0.0 0 1 254.81 104.28
  L 254.81 167.78
  A 1.24 1.24 0.0 0 0 256.05 169.02
  L 275.29 169.02
  A 1.79 1.78 -0.0 0 1 277.08 170.80
  L 277.08 175.26
  A 1.80 1.80 0.0 0 1 275.29 177.06
  Q 267.72 177.06 252.02 177.02
  Q 248.11 177.01 246.47 174.49
  Q 245.42 172.87 245.45 168.33
  Q 245.62 143.01 245.46 120.25
  Q 245.40 111.87 245.53 104.39
  Z"
/>
</svg>
