<?xml version="1.0" encoding="UTF-8" standalone="no"?>
<!DOCTYPE svg PUBLIC "-//W3C//DTD SVG 1.1//EN" "http://www.w3.org/Graphics/SVG/1.1/DTD/svg11.dtd">
<svg xmlns="http://www.w3.org/2000/svg" version="1.1" viewBox="0.00 0.00 400.00 200.00">
<g stroke-width="2.00" fill="none" stroke-linecap="butt">
<path stroke="#767b41" vector-effect="non-scaling-stroke" d="
  M 196.76 60.69
  L 189.64 60.53"
/>
<path stroke="#767b41" vector-effect="non-scaling-stroke" d="
  M 220.22 74.07
  L 189.46 74.13"
/>
<path stroke="#767b41" vector-effect="non-scaling-stroke" d="
  M 226.54 87.69
  L 189.44 87.65"
/>
<path stroke="#767b41" vector-effect="non-scaling-stroke" d="
  M 226.54 101.34
  L 189.48 101.38"
/>
<path stroke="#767b41" vector-effect="non-scaling-stroke" d="
  M 220.22 114.96
  Q 205.44 115.02 190.49 115.00
  Q 189.46 115.00 189.45 114.30"
/>
</g>
<path fill="#ec870e" d="
  M 196.76 60.69
  L 189.64 60.53
  L 189.62 47.45
  A 0.62 0.62 0.0 0 1 190.24 46.83
  L 240.09 46.83
  A 0.67 0.67 0.0 0 1 240.76 47.50
  L 240.76 59.82
  A 0.73 0.73 0.0 0 1 240.03 60.55
  L 196.76 60.69
  Z"
/>
<path fill="#006f73" d="
  M 196.76 60.69
  Q 211.76 63.08 220.22 74.07
  L 189.46 74.13
  L 159.32 74.14
  A 0.52 0.52 0.0 0 1 158.80 73.62
  L 158.80 61.16
  A 0.57 0.57 0.0 0 1 159.37 60.59
  L 189.64 60.53
  L 196.76 60.69
  Z"
/>
<path fill="#ec870e" d="
  M 220.22 74.07
  L 240.35 74.13
  A 0.55 0.55 0.0 0 1 240.90 74.68
  L 240.90 87.15
  A 0.54 0.53 0.0 0 1 240.36 87.68
  L 226.54 87.69
  L 189.44 87.65
  L 189.46 74.13
  L 220.22 74.07
  Z"
/>
<path fill="#006f73" d="
  M 189.44 87.65
  L 226.54 87.69
  L 226.54 101.34
  L 189.48 101.38
  L 159.43 101.41
  A 0.69 0.68 90.0 0 1 158.75 100.72
  L 158.75 88.42
  A 0.78 0.77 -90.0 0 1 159.52 87.64
  L 189.44 87.65
  Z"
/>
<path fill="#ec870e" d="
  M 226.54 101.34
  L 240.20 101.34
  A 0.58 0.57 -90.0 0 1 240.77 101.92
  L 240.77 114.35
  A 0.63 0.63 0.0 0 1 240.14 114.98
  L 220.22 114.96
  Q 205.44 115.02 190.49 115.00
  Q 189.46 115.00 189.45 114.30
  L 189.48 101.38
  L 226.54 101.34
  Z"
/>
<path fill="#006f73" d="
  M 189.45 114.30
  Q 189.46 115.00 190.49 115.00
  Q 205.44 115.02 220.22 114.96
  Q 213.00 124.02 202.68 127.10
  Q 196.75 128.87 184.72 128.66
  Q 173.63 128.47 159.47 128.62
  A 0.64 0.64 0.0 0 1 158.82 127.98
  L 158.82 115.32
  A 0.41 0.41 0.0 0 1 159.23 114.91
  L 188.95 114.91
  A 0.45 0.45 0.0 0 0 189.38 114.58
  L 189.45 114.30
  Z"
/>
<rect fill="#006f73" x="-1.15" y="-15.32" transform="translate(183.47,155.82) rotate(9.0)" width="2.30" height="30.64" rx="0.75"/>
<rect fill="#006f73" x="-1.14" y="-15.37" transform="translate(216.18,155.83) rotate(8.9)" width="2.28" height="30.74" rx="0.98"/>
<path fill="#006f73" d="
  M 159.16 168.71
  L 159.88 168.46
  A 1.13 1.12 -9.3 0 0 160.64 167.41
  Q 160.80 160.01 160.65 144.50
  Q 160.64 143.24 159.22 142.85
  A 0.35 0.35 0.0 0 1 159.30 142.16
  L 174.47 142.13
  A 0.83 0.82 89.9 0 1 175.29 142.96
  L 175.30 148.46
  A 0.50 0.50 0.0 0 1 174.80 148.96
  L 174.54 148.96
  A 0.32 0.31 84.4 0 1 174.23 148.70
  Q 173.17 142.76 167.16 143.15
  A 1.00 0.99 88.1 0 0 166.23 144.15
  L 166.25 153.92
  A 0.67 0.66 -3.2 0 0 166.99 154.58
  C 169.47 154.31 169.75 152.30 170.22 150.11
  A 0.48 0.47 50.9 0 1 171.16 150.20
  L 171.17 160.66
  A 0.38 0.38 0.0 0 1 170.79 161.04
  L 170.50 161.04
  A 0.10 0.09 81.6 0 1 170.41 160.97
  L 168.92 156.74
  A 1.37 1.37 0.0 0 0 166.25 157.20
  L 166.27 167.62
  A 0.74 0.73 -88.0 0 0 166.95 168.36
  Q 174.15 168.93 174.76 161.18
  A 0.67 0.67 0.0 0 1 175.21 160.61
  L 175.51 160.51
  A 0.25 0.25 0.0 0 1 175.85 160.75
  L 175.87 168.70
  A 0.72 0.71 89.9 0 1 175.16 169.42
  L 159.30 169.44
  A 0.38 0.37 35.0 0 1 159.16 168.71
  Z"
/>
<path fill="#006f73" d="
  M 209.53 155.77
  C 209.54 163.78 206.46 169.79 197.51 169.44
  Q 194.60 169.33 191.23 169.47
  A 0.39 0.38 -65.2 0 1 190.98 168.78
  L 191.74 168.18
  A 1.64 1.63 -18.4 0 0 192.38 166.92
  Q 192.40 165.94 192.39 155.79
  Q 192.37 145.65 192.35 144.67
  A 1.64 1.63 18.3 0 0 191.71 143.41
  L 190.95 142.81
  A 0.39 0.38 65.1 0 1 191.19 142.12
  Q 194.56 142.25 197.47 142.13
  C 206.42 141.76 209.51 147.76 209.53 155.77
  Z
  M 197.93 143.48
  L 197.97 168.04
  A 0.43 0.43 0.0 0 0 198.40 168.47
  L 198.51 168.47
  A 5.31 4.84 89.9 0 0 203.34 163.16
  L 203.32 148.36
  A 5.31 4.84 89.9 0 0 198.47 143.05
  L 198.36 143.05
  A 0.43 0.43 0.0 0 0 197.93 143.48
  Z"
/>
<path fill="#006f73" d="
  M 223.78 168.72
  L 224.50 168.47
  A 1.13 1.12 -9.2 0 0 225.26 167.42
  Q 225.43 160.02 225.30 144.50
  Q 225.29 143.24 223.87 142.84
  A 0.35 0.35 0.0 0 1 223.96 142.15
  L 239.13 142.15
  A 0.83 0.82 -90.0 0 1 239.95 142.98
  L 239.95 148.48
  A 0.50 0.50 0.0 0 1 239.45 148.98
  L 239.19 148.98
  A 0.32 0.31 84.5 0 1 238.88 148.72
  Q 237.83 142.78 231.82 143.16
  A 1.00 0.99 88.2 0 0 230.89 144.16
  L 230.89 153.93
  A 0.67 0.66 -3.1 0 0 231.63 154.59
  C 234.11 154.33 234.40 152.32 234.87 150.12
  A 0.48 0.47 51.0 0 1 235.81 150.22
  L 235.80 160.68
  A 0.38 0.38 0.0 0 1 235.42 161.06
  L 235.13 161.06
  A 0.10 0.09 81.7 0 1 235.04 160.99
  L 233.56 156.76
  A 1.37 1.37 0.0 0 0 230.89 157.21
  L 230.89 167.64
  A 0.74 0.73 -87.9 0 0 231.57 168.38
  Q 238.77 168.96 239.40 161.21
  A 0.67 0.67 0.0 0 1 239.85 160.64
  L 240.15 160.54
  A 0.26 0.25 -9.7 0 1 240.49 160.78
  L 240.49 168.73
  A 0.72 0.71 90.0 0 1 239.78 169.45
  L 223.91 169.45
  A 0.38 0.37 35.1 0 1 223.78 168.72
  Z"
/>
</svg>
