<?xml version="1.0" encoding="UTF-8" standalone="no"?>
<!DOCTYPE svg PUBLIC "-//W3C//DTD SVG 1.1//EN" "http://www.w3.org/Graphics/SVG/1.1/DTD/svg11.dtd">
<svg xmlns="http://www.w3.org/2000/svg" version="1.1" viewBox="0.00 0.00 400.00 200.00">
<path fill="#c4151c" d="
  M 34.53 83.10
  L 84.23 72.78
  A 7.95 7.77 38.5 0 1 85.81 72.62
  L 96.02 72.62
  A 0.39 0.39 0.0 0 1 96.39 73.14
  L 78.55 126.97
  A 0.40 0.40 0.0 0 1 77.89 127.13
  L 34.38 83.62
  A 0.31 0.31 0.0 0 1 34.53 83.10
  Z
  M 83.12 77.69
  A 0.30 0.30 0.0 0 0 82.73 77.30
  L 58.88 85.63
  A 0.30 0.30 0.0 0 0 58.78 86.14
  L 74.74 100.44
  A 0.30 0.30 0.0 0 0 75.23 100.31
  L 83.12 77.69
  Z"
/>
<path fill="#231f20" d="
  M 168.09 100.75
  C 168.09 106.98 167.10 114.35 175.26 115.31
  C 180.67 115.95 185.83 113.76 185.89 107.73
  Q 185.94 102.65 186.00 96.78
  C 186.05 90.53 184.66 86.60 178.05 86.07
  Q 172.65 85.65 169.72 89.07
  A 0.33 0.33 0.0 0 1 169.15 88.93
  Q 168.40 85.93 166.55 83.54
  A 0.49 0.48 -33.7 0 1 166.70 82.82
  C 173.29 79.05 180.63 78.90 186.95 82.52
  Q 192.56 85.73 192.82 93.57
  Q 193.03 99.90 192.86 107.93
  Q 192.74 113.37 189.47 116.93
  C 183.45 123.46 168.63 123.20 163.57 115.45
  C 160.71 111.06 161.17 106.44 161.17 100.71
  C 161.17 94.49 162.15 87.12 153.99 86.15
  C 148.59 85.51 143.43 87.70 143.37 93.73
  Q 143.32 98.81 143.26 104.68
  C 143.21 110.93 144.60 114.86 151.21 115.39
  Q 156.61 115.81 159.54 112.39
  A 0.33 0.33 0.0 0 1 160.11 112.53
  Q 160.86 115.53 162.71 117.92
  A 0.49 0.48 -33.7 0 1 162.56 118.64
  C 155.97 122.41 148.63 122.56 142.31 118.94
  Q 136.70 115.73 136.44 107.89
  Q 136.23 101.56 136.40 93.53
  Q 136.52 88.09 139.79 84.53
  C 145.81 78.00 160.63 78.26 165.68 86.01
  C 168.55 90.40 168.09 95.02 168.09 100.75
  Z"
/>
<path fill="#231f20" d="
  M 318.49 97.55
  C 326.48 98.76 333.63 101.05 332.73 111.00
  C 331.80 121.29 319.95 122.81 312.05 120.89
  Q 302.82 118.64 302.83 108.91
  A 0.43 0.42 -0.0 0 1 303.26 108.49
  L 309.35 108.49
  A 0.41 0.40 0.0 0 1 309.76 108.89
  Q 309.71 114.31 315.02 115.22
  C 319.55 116.00 326.39 115.54 325.61 109.16
  C 325.07 104.81 320.53 104.52 317.22 104.02
  C 309.23 102.81 302.08 100.52 302.98 90.58
  C 303.91 80.28 315.76 78.76 323.66 80.68
  Q 332.89 82.93 332.88 92.66
  A 0.43 0.42 -0.0 0 1 332.45 93.08
  L 326.36 93.08
  A 0.41 0.40 0.0 0 1 325.95 92.68
  Q 326.00 87.26 320.69 86.35
  C 316.16 85.57 309.32 86.03 310.10 92.41
  C 310.64 96.77 315.18 97.05 318.49 97.55
  Z"
/>
<path fill="#231f20" d="
  M 118.72 80.59
  Q 126.39 80.59 133.97 80.60
  A 0.57 0.57 0.0 0 1 134.54 81.17
  L 134.54 86.08
  A 0.55 0.55 0.0 0 1 133.99 86.63
  L 122.62 86.63
  A 0.44 0.43 -0.0 0 0 122.18 87.06
  L 122.18 120.28
  A 0.63 0.62 87.3 0 1 121.62 120.90
  Q 121.23 120.94 118.75 120.94
  Q 116.28 120.94 115.88 120.91
  A 0.63 0.62 -87.4 0 1 115.32 120.29
  L 115.26 87.07
  A 0.44 0.43 -0.1 0 0 114.82 86.64
  L 103.45 86.66
  A 0.55 0.55 0.0 0 1 102.90 86.11
  L 102.89 81.20
  A 0.57 0.57 0.0 0 1 103.46 80.63
  Q 111.04 80.60 118.72 80.59
  Z"
/>
<path fill="#231f20" d="
  M 198.90 120.55
  L 198.90 81.00
  A 0.39 0.39 0.0 0 1 199.29 80.61
  L 205.45 80.61
  A 0.39 0.39 0.0 0 1 205.84 81.00
  L 205.84 114.59
  A 0.39 0.39 0.0 0 0 206.23 114.98
  L 225.78 114.98
  A 0.39 0.39 0.0 0 1 226.17 115.37
  L 226.17 120.55
  A 0.39 0.39 0.0 0 1 225.78 120.94
  L 199.29 120.94
  A 0.39 0.39 0.0 0 1 198.90 120.55
  Z"
/>
<path fill="#231f20" d="
  M 231.34 120.86
  A 0.46 0.45 0.7 0 1 230.89 120.41
  L 230.89 81.03
  A 0.33 0.33 0.0 0 1 231.20 80.70
  Q 236.95 80.35 249.49 80.73
  Q 260.80 81.07 260.38 92.27
  Q 260.19 97.47 256.20 100.27
  A 0.31 0.30 44.4 0 0 256.21 100.77
  Q 261.91 104.55 260.93 112.04
  Q 259.82 120.51 251.05 120.80
  Q 240.81 121.13 231.34 120.86
  Z
  M 237.85 86.95
  L 237.79 97.33
  A 0.36 0.36 0.0 0 0 238.15 97.69
  L 248.26 97.74
  A 4.99 4.95 0.3 0 0 253.28 92.82
  L 253.28 91.62
  A 4.99 4.95 0.3 0 0 248.32 86.64
  L 238.21 86.59
  A 0.36 0.36 0.0 0 0 237.85 86.95
  Z
  M 237.82 104.11
  L 237.84 114.67
  A 0.31 0.31 0.0 0 0 238.15 114.98
  L 248.92 114.96
  A 5.02 4.75 -0.1 0 0 253.93 110.21
  L 253.93 108.53
  A 5.02 4.75 -0.1 0 0 248.90 103.78
  L 238.13 103.80
  A 0.31 0.31 0.0 0 0 237.82 104.11
  Z"
/>
<path fill="#231f20" d="
  M 277.76 80.61
  L 285.50 80.61
  A 0.46 0.46 0.0 0 1 285.94 80.92
  L 299.69 120.35
  A 0.46 0.46 0.0 0 1 299.25 120.96
  L 292.79 120.96
  A 0.46 0.46 0.0 0 1 292.35 120.65
  L 289.30 111.88
  A 0.46 0.46 0.0 0 0 288.86 111.57
  L 273.76 111.57
  A 0.46 0.46 0.0 0 0 273.32 111.88
  L 270.27 120.65
  A 0.46 0.46 0.0 0 1 269.83 120.96
  L 264.00 120.96
  A 0.46 0.46 0.0 0 1 263.56 120.35
  L 277.32 80.92
  A 0.46 0.46 0.0 0 1 277.76 80.61
  Z
  M 275.40 105.21
  A 0.32 0.32 0.0 0 0 275.70 105.64
  L 286.96 105.60
  A 0.32 0.32 0.0 0 0 287.26 105.17
  L 281.57 88.86
  A 0.32 0.32 0.0 0 0 280.97 88.87
  L 275.40 105.21
  Z"
/>
<path fill="#231f20" d="
  M 363.72 100.78
  Q 363.72 102.81 363.65 103.27
  A 0.66 0.65 4.4 0 1 363.00 103.82
  L 346.91 103.82
  A 0.50 0.50 0.0 0 0 346.41 104.32
  L 346.41 114.45
  A 0.50 0.49 90.0 0 0 346.90 114.95
  L 365.93 114.95
  A 0.62 0.62 0.0 0 1 366.55 115.57
  L 366.55 120.34
  A 0.60 0.60 0.0 0 1 365.95 120.94
  L 339.93 120.94
  A 0.51 0.51 0.0 0 1 339.42 120.44
  Q 339.42 119.88 339.42 100.77
  Q 339.43 81.65 339.43 81.10
  A 0.51 0.51 0.0 0 1 339.94 80.60
  L 365.96 80.61
  A 0.60 0.60 0.0 0 1 366.56 81.21
  L 366.56 85.98
  A 0.62 0.62 0.0 0 1 365.94 86.60
  L 346.91 86.59
  A 0.50 0.49 -90.0 0 0 346.42 87.09
  L 346.41 97.22
  A 0.50 0.50 0.0 0 0 346.91 97.72
  L 363.00 97.73
  A 0.66 0.65 -4.4 0 1 363.65 98.28
  Q 363.72 98.74 363.72 100.78
  Z"
/>
</svg>
